Coordinates
version=1
nRows=6
nColumns=107
inDegrees=yes

Units are S.I. units (second, meters, Newtons, ...)
If the header above contains a line with 'inDegrees', this indicates whether rotational values are in degrees (yes) or radians (no).

endheader
time	sternoclavicular_r2	sternoclavicular_r3	unrotscap_r3	unrotscap_r2	acromioclavicular_r2	acromioclavicular_r3	acromioclavicular_r1	unrothum_r1	unrothum_r3	unrothum_r2	elv_angle	shoulder_elv	shoulder1_r2	shoulder_rot	elbow_flexion	pro_sup	deviation	flexion	proximal_distal_r1	proximal_distal_r3	cmc_flexion	cmc_abduction	mp_flexion	ip_flexion	mcp2_flexion	mcp2_abduction	pm2_flexion	md2_flexion	mcp3_flexion	mcp3_abduction	pm3_flexion	md3_flexion	mcp4_flexion	mcp4_abduction	pm4_flexion	md4_flexion	mcp5_flexion	mcp5_abduction	pm5_flexion	md5_flexion	bicpt_tx	bicpt_ty	bicpt_tz	bicpt2_tx	bicpt2_ty	bicpt2_tz	ptpt_tx	ptpt_ty	ptpt_tz	FCUpt_tx	FCUpt_ty	FCUpt_tz	EDCpt_tx	EDCpt_ty	EDCpt_tz	APLpt_tx	APLpt_ty	APLpt_tz	FPLpt_tx	FPLpt_ty	FPLpt_tz	FPLpt2_tx	FPLpt2_ty	FPLpt2_tz	PEC1pt2_tx	PEC1pt2_ty	PEC1pt2_tz	PEC1pt3_tx	PEC1pt3_ty	PEC1pt3_tz	PEC2pt2_tx	PEC2pt2_ty	PEC2pt2_tz	PEC2pt3_tx	PEC2pt3_ty	PEC2pt3_tz	PEC3pt2_tx	PEC3pt2_ty	PEC3pt2_tz	PEC3pt3_tx	PEC3pt3_ty	PEC3pt3_tz	DELT2pt2a_tx	DELT2pt2a_ty	DELT2pt2a_tz	DELT2pt2_tx	DELT2pt2_ty	DELT2pt2_tz	LAT1pt2_tx	LAT1pt2_ty	LAT1pt2_tz	LAT1pt3_tx	LAT1pt3_ty	LAT1pt3_tz	LAT2pt2_tx	LAT2pt2_ty	LAT2pt2_tz	LAT2pt3_tx	LAT2pt3_ty	LAT2pt3_tz	LAT3pt2_tx	LAT3pt2_ty	LAT3pt2_tz	LAT3pt3_tx	LAT3pt3_ty	LAT3pt3_tz
      0.66666667	     -0.33003285	      0.13978634	     -0.13978634	      0.33003285	     -0.06682494	      0.54005565	      0.24275130	     -0.24275130	     -0.54005565	      0.06682494	     98.50187932	     78.13821138	     -1.71918211	    -16.90257001	     27.69983652	     40.90683836	      0.19505415	      0.10316111	      0.23357496	      0.05158055	     34.29839190	    -20.30936630	     12.68829786	      7.75128862	    -14.07860380	     10.68816463	     11.94865421	    -31.83581221	    -16.59559892	      4.16942266	      7.24046195	      9.83647541	    -21.02583576	      3.17148629	     -5.02009960	     20.15424872	    -34.49481810	    -13.19922015	      9.45713419	      5.11804758	      0.00081622	     -0.03077482	     -0.00481138	      0.01657519	     -0.01772480	     -0.00737266	      0.00452745	     -0.06685443	     -0.00334527	      0.00787166	     -0.18347609	     -0.00039256	     -0.00490881	      0.00141726	      0.00013969	     -0.00011446	     -0.00004578	     -0.00022892	     -0.00014651	     -0.00043953	     -0.00024723	     -0.00001248	     -0.00020392	     -0.00024470	      0.00256120	      0.00898590	      0.00625106	     -0.00837816	      0.02022913	     -0.01918729	      0.00256120	      0.00898590	      0.00625106	      0.00056433	      0.01875319	     -0.00985410	      0.00402185	      0.00499695	      0.01614546	      0.00000000	      0.00816841	      0.00000000	     -0.00733632	     -0.03390333	     -0.00673732	      0.01192475	     -0.00033877	     -0.00230047	     -0.00091161	      0.01528037	     -0.00625106	      0.00251779	      0.02205236	     -0.01823226	     -0.00612083	      0.01324010	     -0.00559991	     -0.01276259	      0.02795614	     -0.03129872	     -0.02396241	      0.01480286	     -0.00750996	     -0.01588812	      0.03229715	     -0.03911255
      0.70000000	     -0.32944192	      0.13953605	     -0.13953605	      0.32944192	     -0.06670529	      0.53908867	      0.24231665	     -0.24231665	     -0.53908867	      0.06670529	     98.57795733	     77.99830255	     -1.72050993	    -17.59017181	     27.88688425	     43.45548466	      0.21661976	      0.14067475	      0.25557581	      0.07033737	     33.08924226	    -20.24343651	     10.74269385	      7.89416804	    -13.18867059	     10.31364324	     12.79236023	    -29.62086868	    -15.34023135	      3.94022998	      7.86605382	     10.26075087	    -19.44185907	      2.69776800	     -3.53534980	     19.67470780	    -32.98389378	    -13.25690583	      9.71497941	      5.14104003	      0.00082241	     -0.03079626	     -0.00481483	      0.01656721	     -0.01777561	     -0.00709278	      0.00433913	     -0.06697620	     -0.00355057	      0.00812997	     -0.18342149	     -0.00040645	     -0.00521465	      0.00152265	      0.00011838	     -0.00016050	     -0.00006420	     -0.00032100	     -0.00020544	     -0.00061633	     -0.00034669	     -0.00001179	     -0.00021896	     -0.00026275	      0.00255661	      0.00896981	      0.00623987	     -0.00836316	      0.02019291	     -0.01915293	      0.00255661	      0.00896981	      0.00623987	      0.00056332	      0.01871961	     -0.00983646	      0.00401665	      0.00498800	      0.01613314	      0.00000000	      0.00813897	      0.00000000	     -0.00732318	     -0.03384263	     -0.00671289	      0.01234682	     -0.00035910	     -0.00250835	     -0.00090998	      0.01525301	     -0.00623987	      0.00251328	      0.02201287	     -0.01819962	     -0.00610987	      0.01321639	     -0.00558988	     -0.01273973	      0.02790608	     -0.03124268	     -0.02391950	      0.01477636	     -0.00749651	     -0.01585967	      0.03223933	     -0.03904252
      0.73333333	     -0.32927105	      0.13946368	     -0.13946368	      0.32927105	     -0.06667069	      0.53880907	      0.24219097	     -0.24219097	     -0.53880907	      0.06667069	     98.54832034	     77.95784901	     -1.71999266	    -17.76294874	     28.06508614	     45.65833235	      0.24156133	      0.17411607	      0.28007132	      0.08705803	     30.93810125	    -20.02001920	      8.48966513	      7.35455674	    -11.13749162	      9.77720297	     14.00124136	    -27.94463983	    -13.45274546	      3.34528278	      8.52322321	     10.69535429	    -17.72752883	      1.93242467	     -2.13069260	     19.91183864	    -31.47945498	    -13.32228295	     10.74591815	      5.15356699	      0.00082831	     -0.03081669	     -0.00481812	      0.01654836	     -0.01782402	     -0.00684355	      0.00417636	     -0.06708145	     -0.00372802	      0.00835485	     -0.18337281	     -0.00041453	     -0.00547899	      0.00161536	      0.00009712	     -0.00020353	     -0.00008141	     -0.00040707	     -0.00026052	     -0.00078157	     -0.00043963	     -0.00000974	     -0.00024169	     -0.00029003	      0.00255529	      0.00896516	      0.00623663	     -0.00835882	      0.02018244	     -0.01914300	      0.00255529	      0.00896516	      0.00623663	      0.00056303	      0.01870990	     -0.00983136	      0.00401514	      0.00498541	      0.01612957	      0.00000000	      0.00813046	      0.00000000	     -0.00731938	     -0.03382507	     -0.00670584	      0.01245189	     -0.00036425	     -0.00256182	     -0.00090951	      0.01524510	     -0.00623663	      0.00251198	      0.02200146	     -0.01819018	     -0.00610670	      0.01320954	     -0.00558698	     -0.01273313	      0.02789161	     -0.03122648	     -0.02390709	      0.01476869	     -0.00749262	     -0.01585144	      0.03222260	     -0.03902227
      0.76666667	     -0.32849984	      0.13913703	     -0.13913703	      0.32849984	     -0.06651454	      0.53754708	      0.24162371	     -0.24162371	     -0.53754708	      0.06651454	     98.67524870	     77.77525789	     -1.72220798	    -18.58933483	     28.12814567	     48.49945749	      0.26228012	      0.19148151	      0.29964587	      0.09574075	     27.98136234	    -19.24089755	      5.99843749	      6.64032025	     -8.77683745	      8.99155921	     15.76322199	    -26.64139815	    -11.24808584	      2.87984741	      9.67838880	     11.35542354	    -15.37617551	      1.28492213	      0.13433019	     20.48121671	    -30.09862432	    -13.44286929	     11.91025918	      5.16154458	      0.00083039	     -0.03082392	     -0.00481929	      0.01650765	     -0.01784115	     -0.00651206	      0.00396644	     -0.06721719	     -0.00395689	      0.00864710	     -0.18330800	     -0.00041955	     -0.00581992	      0.00173714	      0.00006583	     -0.00022662	     -0.00009065	     -0.00045323	     -0.00029007	     -0.00087021	     -0.00048949	     -0.00000545	     -0.00026456	     -0.00031747	      0.00254930	      0.00894416	      0.00622203	     -0.00833924	      0.02013517	     -0.01909816	      0.00254930	      0.00894416	      0.00622203	      0.00056171	      0.01866608	     -0.00980833	      0.00400835	      0.00497374	      0.01611340	      0.00000000	      0.00809214	      0.00000000	     -0.00730224	     -0.03374585	     -0.00667404	      0.01294895	     -0.00038901	     -0.00282433	     -0.00090738	      0.01520940	     -0.00622203	      0.00250609	      0.02194992	     -0.01814758	     -0.00609240	      0.01317860	     -0.00557390	     -0.01270330	      0.02782628	     -0.03115334	     -0.02385110	      0.01473410	     -0.00747507	     -0.01581432	      0.03214713	     -0.03893087
      0.80000000	     -0.32870590	      0.13922431	     -0.13922431	      0.32870590	     -0.06655626	      0.53788427	      0.24177528	     -0.24177528	     -0.53788427	      0.06655626	     98.54889465	     77.82404426	     -1.72000269	    -18.52235594	     28.32544204	     50.24728141	      0.27080317	      0.21012557	      0.30749345	      0.10506278	     23.80445914	    -18.54814623	      3.31807256	      5.69131713	     -6.56265420	      7.24359227	     17.44497567	    -25.94323840	     -9.93769960	      1.48280327	     10.85703280	     11.83345418	    -14.09069779	     -0.11279618	      1.13830938	     20.84608286	    -29.76730746	    -13.59062125	     12.43764517	      5.24299946	      0.00083692	     -0.03084653	     -0.00482293	      0.01647344	     -0.01789475	     -0.00630250	      0.00383729	     -0.06730070	     -0.00409769	      0.00882813	     -0.18326699	     -0.00041962	     -0.00602966	      0.00181330	      0.00004440	     -0.00025196	     -0.00010078	     -0.00050392	     -0.00032251	     -0.00096752	     -0.00054423	      0.00000283	     -0.00028033	     -0.00033640	      0.00255090	      0.00894977	      0.00622593	     -0.00834447	      0.02014780	     -0.01911014	      0.00255090	      0.00894977	      0.00622593	      0.00056206	      0.01867779	     -0.00981448	      0.00401016	      0.00497685	      0.01611773	      0.00000000	      0.00810237	      0.00000000	     -0.00730682	     -0.03376702	     -0.00668252	      0.01290919	     -0.00038699	     -0.00280241	     -0.00090795	      0.01521894	     -0.00622593	      0.00250767	      0.02196369	     -0.01815896	     -0.00609622	      0.01318686	     -0.00557739	     -0.01271127	      0.02784374	     -0.03117288	     -0.02386606	      0.01474335	     -0.00747976	     -0.01582424	      0.03216730	     -0.03895529
      0.83333333	     -0.32863622	      0.13919479	     -0.13919479	      0.32863622	     -0.06654215	      0.53777025	      0.24172402	     -0.24172402	     -0.53777025	      0.06654215	     98.44629480	     77.80754638	     -1.71821198	    -18.68552097	     28.55928998	     52.32975076	      0.28396145	      0.23183674	      0.31937612	      0.11591837	     19.35083045	    -16.99329130	      0.43715875	      4.63331761	     -3.89300225	      5.62227572	     19.44862927	    -25.08021151	     -8.25551277	      0.23121583	     12.29461173	     12.41644395	    -12.52523041	     -1.44614192	      2.51306184	     21.36182007	    -28.96100862	    -13.75172697	     13.24725430	      5.32426149	      0.00084465	     -0.03087333	     -0.00482725	      0.01642357	     -0.01795827	     -0.00604725	      0.00368342	     -0.06740019	     -0.00426544	      0.00904504	     -0.18321699	     -0.00041671	     -0.00627956	      0.00190526	      0.00001671	     -0.00028221	     -0.00011288	     -0.00056442	     -0.00036123	     -0.00108369	     -0.00060957	      0.00001342	     -0.00027576	     -0.00033091	      0.00255036	      0.00894788	      0.00622461	     -0.00834271	      0.02014353	     -0.01910609	      0.00255036	      0.00894788	      0.00622461	      0.00056194	      0.01867383	     -0.00981240	      0.00400955	      0.00497580	      0.01611627	      0.00000000	      0.00809891	      0.00000000	     -0.00730527	     -0.03375986	     -0.00667965	      0.01300618	     -0.00039191	     -0.00285566	     -0.00090776	      0.01521571	     -0.00622461	      0.00250713	      0.02195904	     -0.01815511	     -0.00609493	      0.01318407	     -0.00557621	     -0.01270858	      0.02783783	     -0.03116627	     -0.02386100	      0.01474022	     -0.00747818	     -0.01582088	      0.03216048	     -0.03894703
